<svg width="600" height="600" viewBox="0 0 600 600" fill="none" xmlns="http://www.w3.org/2000/svg">
<g clip-path="url(#clip0_3100_73)">
<path d="M397.845 907.33L361.349 913.303L357.065 858.871C357.065 858.871 343.505 761.705 371.004 704.353C354.956 649.608 377.579 479.845 377.579 479.845C377.579 479.845 447.984 406.372 478.697 415.183C511.386 543.912 397.845 907.33 397.845 907.33Z" fill="#232C4C"/>
<path d="M453.52 423.483C450.093 420.051 450.093 403.717 429.332 351.15C397.466 332.241 295.245 355.159 290.895 361.808C269.112 395.137 268.832 462.719 277.137 478.542L345.252 684.406C345.252 684.406 336.931 711.003 330.801 728.394C320.306 758.192 316.434 899.196 316.434 899.196C316.434 899.196 356.95 933.73 362.486 922.609C367.413 912.677 419.15 716.085 419.15 686.749C419.15 668.765 422.626 562.772 407.83 472.47C435.824 454.024 454.097 424.094 453.504 423.5L453.52 423.483Z" fill="#3F4662"/>
<path d="M310.535 134.347C310.535 134.347 352.666 172.345 364.265 169.425C375.535 166.603 377.941 135.238 377.941 135.238L377.266 81.8124L317.158 78.0835L310.551 134.347H310.535Z" fill="#7A2222"/>
<path d="M448.429 243.772C463.439 264.859 463.555 285.599 489.819 336.797C524.733 411.572 484.793 464.156 484.793 464.156L465.894 451.221L434.209 356.678C434.209 356.678 443.206 247.98 448.445 243.772H448.429Z" fill="#8D2E2A"/>
<path d="M265.882 264.727C265.882 264.727 228.562 194.225 227.376 182.213C236.57 148.934 309.084 123.574 309.084 123.574C309.084 123.574 361.184 167.793 364.248 167.694C370.856 167.496 373.986 125.917 385.256 126.363C393.874 126.709 401.947 127.452 406.528 128.92C427.008 135.503 447.407 166.192 453.717 183.533C457.836 194.868 459.616 245.918 459.616 245.918C459.616 245.918 474.297 396.74 477.856 414.345C464.262 424.261 429.991 436.784 394.253 440.414C358.482 443.73 296.364 435.249 281.123 428.122C281.239 410.17 265.882 264.744 265.882 264.744V264.727Z" fill="#9EC2B6"/>
<path d="M409.263 262.465C410.219 262.316 410.878 261.409 410.713 260.436C410.565 259.479 409.659 258.819 408.703 258.984C405.902 259.429 403.035 259.66 400.135 259.66C374.332 259.71 344.954 242.402 327.489 225.869C326.78 225.209 325.677 225.242 325.001 225.935C324.342 226.645 324.375 227.75 325.067 228.427C343.092 245.388 372.784 263.125 400.135 263.174C403.216 263.174 406.264 262.943 409.263 262.465Z" fill="#7BAD9B"/>
<path d="M412.757 357.04C413.631 356.594 413.977 355.538 413.532 354.68C394.798 317.573 354.842 293.781 329.896 261.871C329.303 261.112 328.182 260.98 327.424 261.574C326.666 262.184 326.534 263.29 327.128 264.049C352.733 296.619 392.409 320.378 410.385 356.264C410.698 356.875 411.307 357.238 411.95 357.238C412.214 357.238 412.494 357.172 412.741 357.056L412.757 357.04Z" fill="#7BAD9B"/>
<path d="M209.417 283.914C203.864 309.208 210.422 342.471 223.01 373.968C238.597 416.322 310.238 497.813 310.238 497.813L330.504 464.583L280.58 360.356L270.051 301.486C270.051 301.486 215.892 285.729 209.417 283.914Z" fill="#8D2E2A"/>
<path d="M270.051 272.398L279.723 339.32C279.723 339.32 223.999 358.212 214.36 342.405C171.817 272.629 227.508 182.228 227.508 182.228L270.051 272.398Z" fill="#9EC2B6"/>
<path d="M313.27 55.3974C310.683 83.034 326.484 107.123 348.546 109.202C370.609 111.265 390.595 90.5413 393.182 62.8881C395.769 35.2515 379.655 14.6601 357.576 12.5812C335.513 10.5188 315.84 27.7607 313.27 55.3974Z" fill="#232C4C"/>
<path d="M319.728 68.6619C309.612 57.5082 311.16 78.4296 313.253 84.0394C314.027 86.1018 315.757 90.1607 318.13 90.8537L319.728 68.6619Z" fill="#7A2222"/>
<path d="M384.548 74.7338C396.56 65.6426 391.172 85.937 388.074 91.0518C386.937 92.9328 384.482 96.6122 382.011 96.8267L384.548 74.7338Z" fill="#7A2222"/>
<path d="M318.79 76.1545C320.982 63.4664 319.927 42.7925 326.238 34.8398C333.57 25.5836 345.845 25.8146 356.324 26.788C366.82 27.778 378.93 29.824 384.417 40.2846C389.129 49.2603 384.252 69.3732 384.071 82.2593C383.824 98.7093 378.271 109.5 364.892 118.443C360.938 121.083 352.271 122.089 347.46 121.71C342.681 121.182 334.344 118.591 330.95 115.258C319.449 103.989 315.989 92.3405 318.807 76.138L318.79 76.1545Z" fill="#8D2E2A"/>
<path d="M338.59 96.8599C337.943 98.748 342.613 97.6678 349.632 98.4685C356.639 99.2682 361.388 101.346 362.035 99.4531C362.683 97.5604 358.05 95.9557 351.043 95.156C344.036 94.3563 339.238 94.9672 338.59 96.8599Z" fill="white"/>
<path d="M348.102 48.4502C341.528 54.06 331.015 49.5062 330.768 56.238C334.228 53.5815 337.82 59.2409 347.163 54.4065L348.102 48.4667V48.4502Z" fill="#232C4C"/>
<path d="M359.389 47.5269C366.029 48.0218 376.706 53.7967 375.701 60.446C372.801 57.1956 363.014 52.6912 358.4 53.9287L359.389 47.5269Z" fill="#232C4C"/>
<path d="M360.887 62.6245C360.723 64.3405 361.975 65.8584 363.688 66.0069C365.402 66.1719 366.901 64.9179 367.066 63.202C367.231 61.5025 365.979 59.9846 364.265 59.8196C362.552 59.6546 361.052 60.9251 360.887 62.6245Z" fill="#232C4C"/>
<path d="M344.922 61.1205C344.757 62.8364 343.258 64.0904 341.544 63.9254C339.831 63.7604 338.578 62.2424 338.743 60.543C338.908 58.8435 340.407 57.5731 342.121 57.7381C343.834 57.903 345.07 59.421 344.922 61.1205Z" fill="#232C4C"/>
<path d="M217.617 164.419C219.545 165.44 223.974 162.521 226.014 163.302C228.181 164.148 228.069 168.727 230.188 169.238C232.499 169.796 236.833 166.206 239.175 166.382C241.82 166.573 242.808 170.514 245.277 170.179C248.209 169.796 251.826 165.121 254.503 163.797C257.642 162.249 261.322 163.063 263.792 160.159C266.293 157.239 265.56 152.772 266.644 149.006C267.568 145.783 271.44 141.316 271.312 137.758C271.201 134.71 267.17 133.833 266.198 130.929C265.337 128.344 267.441 122.904 265.863 120.494C264.413 118.276 259.633 119.585 257.626 117.798C255.746 116.107 256.287 110.889 253.849 109.597C251.412 108.304 246.584 111.24 244.019 110.57C241.294 109.852 240.29 105.48 237.422 105.401C234.299 105.321 229.997 109.581 227.049 110.155C223.735 110.793 220.947 108.049 217.904 109.421C214.351 111.033 211.849 116.202 209.124 118.5C205.97 121.164 201.237 122.744 199.58 126.095C197.923 129.429 200.505 131.934 200.489 135.141C200.489 137.886 197.652 142.975 198.672 145.448C199.533 147.555 203.866 146.438 205.316 148.416C206.607 150.171 205.173 155.309 206.83 156.841C208.344 158.261 212.789 155.963 214.637 157.271C216.39 158.5 215.641 163.382 217.585 164.403L217.617 164.419Z" fill="#FDBB45"/>
<path d="M165.468 145.001C172.335 181.602 152.514 182.049 152.514 182.049C152.514 230.027 236.531 198.563 237.391 183.182C217.793 180.725 209.715 168.359 205.094 148.303C210.241 139.273 212.822 131.486 209.221 115.754L165.468 145.001Z" fill="#F26A3B"/>
<path d="M201.731 130.575C203.977 119.422 208.104 101.839 205.172 93.5742C201.778 83.9531 192.139 81.2088 183.742 79.5016C175.329 77.8103 165.387 76.6137 158.519 84.1606C152.624 90.6384 150.457 106.37 148.911 117.651C146.936 132.027 145.725 141.472 156.034 155.449C158.408 158.672 160.623 166.618 179.121 157.428C191.262 151.38 198.879 144.791 201.731 130.591V130.575Z" fill="#FC8B59"/>
<path d="M200.999 125.759C212.36 119.297 205.811 135.715 202.641 139.688C201.461 141.156 198.259 143.852 196.06 143.804L200.999 125.759Z" fill="#FC8B59"/>
<path d="M201.732 125.903C204.059 125.249 190.882 143.278 205.763 152.07C219.944 142.624 223.465 135.699 225.696 130.291C234.157 109.868 225.569 85.7433 225.569 85.7433C225.569 85.7433 220.183 73.0109 200.107 68.9582C190.977 67.1074 172.272 68.2083 163.588 73.9842C156.29 78.8506 150.204 89.0301 153.789 93.0827C156.211 90.3863 168.32 85.3763 171.108 89.5725C196.299 85.3603 182.023 117.08 201.732 125.887V125.903Z" fill="#FDBB45"/>
<path d="M169.322 110.33C171.473 108.416 178.707 108.655 181.734 109.915C182.818 110.362 183.71 110.474 183.694 111.591C177.831 109.437 172.19 111.83 169.434 110.49L169.322 110.314V110.33Z" fill="#7A2222"/>
<path d="M170.216 117.558C170.216 117.558 171.331 114.766 172.398 114.543C174.486 114.128 181.305 116.457 181.305 116.457L179.855 120.35L178.756 117.941C178.756 117.941 174.47 115.484 172.956 115.691C171.809 115.851 170.216 117.574 170.216 117.574V117.558Z" fill="#7A2222"/>
<path d="M180.014 118.02C179.871 119.201 178.58 120.015 177.146 119.839C175.697 119.664 174.661 118.563 174.804 117.382C174.948 116.202 176.222 115.388 177.672 115.563C179.106 115.739 180.158 116.84 180.014 118.02Z" fill="#7A2222"/>
<path d="M160.767 109.259C159.429 106.914 155.079 105.733 152.291 106.292C151.287 106.483 150.538 106.403 150.299 107.488C155.621 106.707 158.059 110.105 160.624 109.403L160.751 109.259H160.767Z" fill="#7A2222"/>
<path d="M160.082 116.315C160.082 116.315 159.779 113.348 158.95 112.901C157.325 112.023 151.175 112.757 151.175 112.757L151.509 116.874L152.959 114.768C152.959 114.768 157.038 113.332 158.249 113.874C159.173 114.289 160.097 116.315 160.097 116.315H160.082Z" fill="#7A2222"/>
<path d="M154.776 115.132C154.633 116.313 155.509 117.398 156.736 117.541C157.963 117.701 159.078 116.855 159.222 115.674C159.365 114.494 158.489 113.409 157.262 113.265C156.051 113.122 154.935 113.951 154.776 115.132Z" fill="#7A2222"/>
<path d="M171.376 147.296C171.518 147.187 171.606 147.059 171.644 146.917C171.682 146.774 171.669 146.618 171.613 146.453C171.503 146.125 171.222 145.753 170.824 145.361C170.026 144.575 168.746 143.694 167.373 142.887C165.999 142.079 164.53 141.344 163.353 140.848C162.765 140.6 162.248 140.412 161.853 140.305C161.656 140.251 161.487 140.217 161.355 140.207C161.289 140.201 161.231 140.202 161.183 140.209C161.134 140.216 161.093 140.228 161.063 140.251L161.056 140.257L161.053 140.267L161.01 140.552C160.997 140.645 160.986 140.735 160.971 140.82L160.96 140.864L160.988 140.867C162.116 141.014 163.991 141.76 165.672 142.566C166.512 142.969 167.303 143.386 167.926 143.75C168.238 143.932 168.508 144.101 168.721 144.248C168.934 144.395 169.089 144.519 169.172 144.612L169.175 144.614L169.307 144.737C169.597 145.03 169.774 145.364 169.939 145.697C170.127 146.076 170.301 146.457 170.61 146.766L170.769 146.926C170.927 147.077 171.089 147.203 171.353 147.299L171.365 147.304L171.376 147.296Z" fill="#F26A3B" stroke="#F26A3B" stroke-width="0.05"/>
<path d="M153.27 144.757L153.408 144.748C153.712 144.712 153.898 144.594 154.137 144.456L154.268 144.369C154.539 144.154 154.581 143.862 154.636 143.584C154.667 143.424 154.702 143.269 154.784 143.128C154.845 143.024 154.933 142.926 155.066 142.843L155.215 142.765L155.218 142.763L155.621 142.505C156.1 142.209 156.794 141.811 157.585 141.477C158.642 141.03 159.869 140.698 160.988 140.867L161.012 140.87L161.016 140.846C161.031 140.759 161.044 140.666 161.056 140.573C161.069 140.479 161.081 140.384 161.098 140.291L161.1 140.279L161.094 140.27C161.049 140.213 160.971 140.175 160.87 140.153C160.769 140.13 160.64 140.122 160.49 140.127C160.189 140.136 159.797 140.196 159.35 140.298C158.457 140.501 157.343 140.872 156.3 141.339C155.258 141.805 154.285 142.368 153.677 142.957C153.374 143.251 153.159 143.554 153.074 143.855C152.989 144.159 153.036 144.46 153.25 144.748L153.257 144.758L153.27 144.757Z" fill="#F26A3B" stroke="#F26A3B" stroke-width="0.05"/>
<path d="M97.2564 899.162L127.323 893.099L125.697 870.746C125.697 870.746 138.954 775.731 112.074 719.616C127.769 666.07 169.897 522.185 169.897 522.185C169.897 522.185 116.966 426.884 86.9157 435.5C54.9374 561.387 63.6689 726.541 63.6689 726.541L97.2564 899.162Z" fill="#85C0C5"/>
<path d="M191.598 897.79C191.598 897.79 222.763 905.369 224.357 899.131C229.344 870.842 234.681 841.995 237.422 831.432C246.982 794.751 253.578 775.716 236.609 719.617C266.341 652.03 265.066 420.933 265.066 420.933C265.066 420.933 211.737 513.474 181.703 522.09C185.622 652.716 188.22 726.542 188.22 726.542L191.598 897.79Z" fill="#85C0C5"/>
<path d="M106.019 365.297C75.4432 418.412 74.6306 431.83 80.3825 466.422C82.7088 480.494 112.122 521.308 125.187 523.717C127.115 524.068 129.043 463.326 130.955 463.629C134.763 464.236 138.539 525.807 142.284 526.206C208.088 533.306 266.596 481.962 266.596 481.962C273.893 466.071 279.088 404.658 247.794 373.322C242.313 367.834 136.181 345.161 106.035 365.297H106.019Z" fill="#FCF9EB"/>
<path d="M52.4996 356.601C82.279 386.406 111.692 304.523 111.692 304.523L122.702 245.839C122.702 245.839 91.8072 211.95 87.1228 224.587C74.5673 258.428 39.2908 343.374 52.4996 356.601Z" fill="#F99178"/>
<path d="M295.946 243.525C270.165 177.183 225.95 176.752 225.95 176.752C225.95 176.752 199.294 168.583 187.153 167.929C174.995 167.275 163.412 173.401 163.412 173.401C163.412 173.401 119.834 161.355 87.1229 224.586C94.1176 244.562 74.1053 411.95 78.0887 440.845C91.0903 450.689 229.599 487.802 271.265 466.134C285.318 427.522 253.595 378.938 251.667 365.807C258.693 337.502 306.748 268.878 295.946 243.541V243.525Z" fill="#FFAA90"/>
<path d="M210.144 427.664L99.4871 417.213L104.809 257.788L210.144 252.107V427.664Z" fill="#AB1638"/>
<path d="M219.688 252.107H210.144V427.664H219.688V252.107Z" fill="#8D2E2A"/>
<path d="M236.753 279.059L226.381 319.059L106.307 346.438C106.307 346.438 156.593 364.404 174.008 367.818C191.248 371.201 244.051 373.498 244.051 373.498C244.051 373.498 299.228 393.778 292.855 260.822C292.138 245.951 245.819 251.982 236.753 279.059Z" fill="#FFAA90"/>
<path d="M226.381 319.057L106.307 346.437C106.307 346.437 156.593 364.402 174.008 367.817C191.248 371.199 244.051 373.497 244.051 373.497L226.365 319.057H226.381Z" fill="#FC8B59"/>
<path d="M76.6236 299.352C76.6236 299.352 51.672 328.694 56.6432 338.49C62.3314 349.723 106.323 346.452 106.323 346.452L226.397 319.073L229.68 306.436L212.392 299.703L190.037 304.378L172.017 305.718L96.6359 297.374L76.6236 299.384V299.352Z" fill="#FC8B59"/>
<path d="M220.548 324.897L237.023 333.114L236.753 279.057L226.38 319.057L119.101 343.533L220.548 324.897Z" fill="#F26A3B"/>
<path d="M218.637 149.962L163.412 167.992V173.417L225.95 176.767L218.637 149.962Z" fill="#FFAA90"/>
</g>
<defs>
<clipPath id="clip0_3100_73">
<rect width="600" height="600" fill="white"/>
</clipPath>
</defs>
</svg>
